PathFileType	4	(X/Y/Z)	C:\Users\86182\Documents\cortex\Trimmed_M1_H2.trc
DataRate	CameraRate	NumFrames	NumMarkers	Units	OrigDataRate	OrigDataStartFrame	OrigNumFrames
100.00	100.00	      140	2	mm	100.00	401	      1001
Frame#	Time	gripper			box			
		X1	Y1	Z1	X2	Y2	Z2	

401	4.000	200.27902	196.26651	292.65561	201.45816	195.14555	152.72177	
402	4.010	200.28833	196.26611	292.67230	201.47687	195.15976	152.73224	
403	4.020	200.30029	196.26555	292.68768	201.49396	195.17282	152.74533	
404	4.030	200.31332	196.26514	292.69800	201.50645	195.18239	152.75674	
405	4.040	200.32623	196.26518	292.70096	201.51244	195.18733	152.76315	
406	4.050	200.33794	196.26584	292.69629	201.51129	195.18753	152.76324	
407	4.060	200.34705	196.26689	292.68546	201.50371	195.18343	152.75787	
408	4.070	200.35188	196.26791	292.67157	201.49168	195.17613	152.74927	
409	4.080	200.35126	196.26855	292.65860	201.47807	195.16740	152.73990	
410	4.090	200.34537	196.26877	292.65009	201.46603	195.15950	152.73172	
411	4.100	200.33598	196.26868	292.64813	201.45807	195.15442	152.72586	
412	4.110	200.32597	196.26845	292.65277	201.45537	195.15317	152.72260	
413	4.120	200.31798	196.26826	292.66217	201.45752	195.15553	152.72177	
414	4.130	200.31332	196.26817	292.67346	201.46301	195.16025	152.72281	
415	4.140	200.31166	196.26799	292.68359	201.46965	195.16563	152.72482	
416	4.150	200.31183	196.26756	292.69022	201.47498	195.16989	152.72662	
417	4.160	200.31265	196.26686	292.69196	201.47704	195.17162	152.72720	
418	4.170	200.31328	196.26585	292.68893	201.47527	195.17044	152.72617	
419	4.180	200.31337	196.26454	292.68250	201.47064	195.16710	152.72391	
420	4.190	200.31313	196.26326	292.67480	201.46506	195.16302	152.72124	
421	4.200	200.31352	196.26256	292.66821	201.46025	195.15948	152.71896	
422	4.210	200.31584	196.26288	292.66449	201.45731	195.15733	152.71759	
423	4.220	200.32077	196.26422	292.66467	201.45674	195.15694	152.71727	
424	4.230	200.32799	196.26610	292.66864	201.45859	195.15831	152.71805	
425	4.240	200.33617	196.26791	292.67523	201.46246	195.16121	152.71976	
426	4.250	200.34346	196.26923	292.68274	201.46748	195.16493	152.72198	
427	4.260	200.34827	196.26999	292.68942	201.47226	195.16844	152.72415	
428	4.270	200.34976	196.27032	292.69382	201.47528	195.17062	152.72557	
429	4.280	200.34789	196.27046	292.69501	201.47560	195.17076	152.72581	
430	4.290	200.34274	196.27042	292.69278	201.47311	195.16884	152.72485	
431	4.300	200.33456	196.27000	292.68793	201.46866	195.16544	152.72318	
432	4.310	200.32390	196.26904	292.68179	201.46361	195.16151	152.72159	
433	4.320	200.31190	196.26755	292.67603	201.45917	195.15793	152.72095	
434	4.330	200.30032	196.26591	292.67242	201.45599	195.15504	152.72173	
435	4.340	200.29121	196.26469	292.67224	201.45418	195.15294	152.72406	
436	4.350	200.28630	196.26424	292.67578	201.45349	195.15147	152.72763	
437	4.360	200.28639	196.26465	292.68207	201.45343	195.15042	152.73163	
438	4.370	200.29080	196.26566	292.68936	201.45326	195.14957	152.73441	
439	4.380	200.29794	196.26692	292.69574	201.45213	195.14876	152.73361	
440	4.390	200.30621	196.26822	292.69952	201.44897	195.14795	152.72577	
441	4.400	200.31474	196.26955	292.69965	201.44266	195.14725	152.70667	
442	4.410	200.32330	196.27092	292.69586	201.43222	195.14699	152.67177	
443	4.420	200.33205	196.27229	292.68860	201.41714	195.14767	152.61739	
444	4.430	200.34108	196.27361	292.67926	201.39799	195.15007	152.54251	
445	4.440	200.35031	196.27486	292.66953	201.37689	195.15501	152.45132	
446	4.450	200.35910	196.27605	292.66156	201.35718	195.16290	152.35385	
447	4.460	200.36597	196.27704	292.65729	201.34169	195.17288	152.26291	
448	4.470	200.36913	196.27771	292.65768	201.33122	195.18286	152.18875	
449	4.480	200.36751	196.27798	292.66248	201.32495	195.19083	152.13588	
450	4.490	200.36143	196.27779	292.67010	201.32164	195.19586	152.10330	
451	4.500	200.35249	196.27718	292.67865	201.32021	195.19820	152.08694	
452	4.510	200.34248	196.27623	292.68628	201.31990	195.19865	152.08163	
453	4.520	200.33279	196.27513	292.69171	201.32022	195.19817	152.08266	
454	4.530	200.32422	196.27394	292.69427	201.32094	195.19771	152.08621	
455	4.540	200.31705	196.27269	292.69397	201.32205	195.19806	152.08957	
456	4.550	200.31142	196.27132	292.69135	201.32358	195.19977	152.09113	
457	4.560	200.30769	196.26991	292.68732	201.32545	195.20282	152.09039	
458	4.570	200.30650	196.26877	292.68301	201.32745	195.20659	152.08795	
459	4.580	200.30829	196.26826	292.67966	201.32919	195.21016	152.08502	
460	4.590	200.31262	196.26857	292.67810	201.33040	195.21268	152.08279	
461	4.600	200.31833	196.26956	292.67847	201.33095	195.21370	152.08203	
462	4.610	200.32402	196.27098	292.68030	201.33087	195.21320	152.08295	
463	4.620	200.32869	196.27245	292.68289	201.33034	195.21155	152.08517	
464	4.630	200.33163	196.27357	292.68549	201.32965	195.20953	152.08774	
465	4.640	200.33270	196.27411	292.68741	201.32907	195.20799	152.08965	
466	4.650	200.33211	196.27400	292.68835	201.32881	195.20740	152.09030	
467	4.660	200.33025	196.27333	292.68823	201.32886	195.20775	152.08969	
468	4.670	200.32776	196.27226	292.68732	201.32906	195.20865	152.08838	
469	4.680	200.32533	196.27118	292.68622	201.32924	195.20955	152.08713	
470	4.690	200.32353	196.27055	292.68564	201.32925	195.20999	152.08649	
471	4.700	200.32253	196.27072	292.68616	201.32901	195.20975	152.08679	
472	4.710	200.32207	196.27159	292.68777	201.32863	195.20903	152.08774	
473	4.720	200.32175	196.27275	292.68988	201.32829	195.20828	152.08871	
474	4.730	200.32120	196.27380	292.69186	201.32822	195.20798	152.08908	
475	4.740	200.32031	196.27449	292.69318	201.32858	195.20840	152.08838	
476	4.750	200.31911	196.27470	292.69348	201.32953	195.20969	152.08646	
477	4.760	200.31787	196.27438	292.69272	201.33116	195.21167	152.08340	
478	4.770	200.31714	196.27361	292.69101	201.33347	195.21414	152.07956	
479	4.780	200.31740	196.27254	292.68863	201.33636	195.21677	152.07532	
480	4.790	200.31870	196.27144	292.68604	201.33960	195.21918	152.07117	
481	4.800	200.32053	196.27051	292.68378	201.34259	195.22086	152.06793	
482	4.810	200.32220	196.26994	292.68253	201.34444	195.22133	152.06653	
483	4.820	200.32336	196.26987	292.68262	201.34383	195.22031	152.06787	
484	4.830	200.32410	196.27028	292.68396	201.33904	195.21794	152.07245	
485	4.840	200.32474	196.27109	292.68604	201.32803	195.21471	152.08066	
486	4.850	200.32544	196.27202	292.68820	201.30858	195.21112	152.09290	
487	4.860	200.32605	196.27286	292.68982	201.27881	195.20770	152.10941	
488	4.870	200.32620	196.27335	292.69055	201.23822	195.20505	152.12979	
489	4.880	200.32556	196.27327	292.69022	201.18918	195.20372	152.15231	
490	4.890	200.32399	196.27257	292.68903	201.13890	195.20428	152.17319	
491	4.900	200.32150	196.27135	292.68732	201.10193	195.20732	152.18555	
492	4.910	200.31842	196.26990	292.68558	201.10246	195.21371	152.17813	
493	4.920	200.31540	196.26862	292.68427	201.17587	195.22499	152.13428	
494	4.930	200.31317	196.26785	292.68372	201.36784	195.24342	152.03201	
495	4.940	200.31213	196.26776	292.68405	201.72957	195.27193	151.84634	
496	4.950	200.31233	196.26828	292.68524	202.30627	195.31325	151.55487	
497	4.960	200.31355	196.26923	292.68707	203.11691	195.36865	151.14792	
498	4.970	200.31552	196.27043	292.68933	204.12280	195.43596	150.64380	
499	4.980	200.31789	196.27165	292.69159	205.20779	195.50822	150.09882	
500	4.990	200.32036	196.27271	292.69348	206.21632	195.57600	149.58884	
501	5.000	200.32289	196.27356	292.69464	207.03230	195.63223	149.17120	
502	5.010	200.32559	196.27434	292.69495	207.61662	195.67435	148.86655	
503	5.020	200.32855	196.27512	292.69440	207.98694	195.70302	148.66840	
504	5.030	200.33163	196.27594	292.69312	208.18694	195.72043	148.55704	
505	5.040	200.33441	196.27669	292.69159	208.26666	195.72932	148.50854	
506	5.050	200.33623	196.27728	292.69031	208.27148	195.73242	148.50037	
507	5.060	200.33669	196.27765	292.68970	208.23695	195.73203	148.51428	
508	5.070	200.33578	196.27783	292.68982	208.18776	195.72987	148.53729	
509	5.080	200.33376	196.27783	292.69049	208.13893	195.72708	148.56126	
510	5.090	200.33078	196.27762	292.69141	208.09802	195.72429	148.58183	
511	5.100	200.32713	196.27718	292.69226	208.06749	195.72179	148.59735	
512	5.110	200.32301	196.27647	292.69281	208.04672	195.71956	148.60785	
513	5.120	200.31868	196.27550	292.69293	208.03375	195.71756	148.61417	
514	5.130	200.31450	196.27425	292.69250	208.02625	195.71571	148.61743	
515	5.140	200.31105	196.27284	292.69162	208.02229	195.71402	148.61868	
516	5.150	200.30891	196.27147	292.69037	208.02074	195.71265	148.61871	
517	5.160	200.30838	196.27037	292.68903	208.02132	195.71194	148.61798	
518	5.170	200.30946	196.26973	292.68774	208.02396	195.71219	148.61676	
519	5.180	200.31221	196.26964	292.68671	208.02808	195.71326	148.61533	
520	5.190	200.31673	196.27020	292.68585	208.03267	195.71474	148.61392	
521	5.200	200.32297	196.27141	292.68521	208.03674	195.71619	148.61276	
522	5.210	200.33049	196.27310	292.68469	208.03966	195.71729	148.61197	
523	5.220	200.33823	196.27487	292.68420	208.04109	195.71782	148.61157	
524	5.230	200.34474	196.27640	292.68378	208.04099	195.71774	148.61154	
525	5.240	200.34871	196.27740	292.68365	208.03958	195.71712	148.61182	
526	5.250	200.34958	196.27779	292.68399	208.03726	195.71609	148.61227	
527	5.260	200.34758	196.27757	292.68475	208.03427	195.71477	148.61287	
528	5.270	200.34351	196.27682	292.68567	208.03056	195.71315	148.61362	
529	5.280	200.33817	196.27567	292.68658	208.02599	195.71115	148.61456	
530	5.290	200.33226	196.27415	292.68732	208.02060	195.70886	148.61572	
531	5.300	200.32635	196.27242	292.68768	208.01501	195.70656	148.61700	
532	5.310	200.32103	196.27069	292.68774	208.01053	195.70486	148.61816	
533	5.320	200.31685	196.26929	292.68750	208.00865	195.70448	148.61899	
534	5.330	200.31416	196.26848	292.68719	208.00993	195.70566	148.61932	
535	5.340	200.31297	196.26833	292.68704	208.01352	195.70796	148.61938	
536	5.350	200.31288	196.26863	292.68707	208.01756	195.71042	148.61938	
537	5.360	200.31332	196.26909	292.68710	208.02045	195.71210	148.61945	
538	5.370	200.31393	196.26950	292.68707	208.02170	195.71236	148.61932	
539	5.380	200.31462	196.26984	292.68701	208.02194	195.71097	148.61838	
540	5.390	200.31549	196.27017	292.68701	208.02254	195.70784	148.61560	
